<svg xmlns="http://www.w3.org/2000/svg" width="115" height="40" viewBox="0 0 115 40">
  <defs>
    <style>
      .cls-1 {
        fill: #fff;
        fill-rule: evenodd;
      }
    </style>
  </defs>
  <path id="UMA" class="cls-1" d="M31.142,32.542V6.048c0-3.566-.941-6.438-2.129-6.438-1.089,0-2.03,2.872-2.03,6.438V28.283a6.259,6.259,0,0,1-6.24,6.438H11.086a6.259,6.259,0,0,1-6.24-6.438V6.048c0-3.566-.941-6.438-2.03-6.438C1.627-.39.686,2.482,0.686,6.048V32.542A6.425,6.425,0,0,0,7.124,38.98H24.7A6.425,6.425,0,0,0,31.142,32.542Zm45,0.149V6.147c0-4.457-2.129-6.19-3.764-6.19-1.931,0-3.714,2.08-5.447,5.4L59.453,19.617a3.9,3.9,0,0,1-3.269,2.377,3.835,3.835,0,0,1-3.219-2.377L45.438,5.354c-2.129-4.011-4.011-5.4-5.794-5.4-1.387,0-3.367,2.129-3.367,6.19V32.69c0,3.466.891,6.537,2.03,6.537s2.03-3.07,2.03-6.537V14.862c0-3.268.842-4.9,2.03-4.9,1.04,0,2.377,1.288,3.665,3.863l5.15,10.2c1.684,3.318,3.615,4.754,5,4.754s3.417-1.634,5-4.754l5.2-10.251c1.238-2.427,2.575-3.764,3.665-3.764,1.139,0,1.981,1.535,1.981,4.8V32.69c0,3.466.941,6.537,2.03,6.537C75.2,39.227,76.142,36.157,76.142,32.69Zm38.31-.05V6.1a6.426,6.426,0,0,0-6.438-6.438H87.71A6.425,6.425,0,0,0,81.272,6.1V32.641c0,3.566.941,6.438,2.08,6.438,1.189,0,2.129-2.872,2.129-6.438V30.412a6.425,6.425,0,0,1,6.438-6.438h11.935a6.425,6.425,0,0,1,6.438,6.438v2.229c0,3.566.941,6.438,2.08,6.438S114.452,36.206,114.452,32.641Zm-4.16-19.264a6.425,6.425,0,0,1-6.438,6.438H91.919a6.425,6.425,0,0,1-6.438-6.438v-3.07a6.425,6.425,0,0,1,6.438-6.438h11.935a6.426,6.426,0,0,1,6.438,6.438v3.07Z"/>
</svg>
