<svg xmlns="http://www.w3.org/2000/svg" width="24" height="25" viewBox="0 0 24 25">
  <defs>
    <style>
      .cls-1 {
        fill: #fff;
        fill-rule: evenodd;
      }
    </style>
  </defs>
  <path id="Kształt_2_1" data-name="Kształt 2 1" class="cls-1" d="M13.194,24.131c-1.885.21-3.393,0.062-3.393-.335s2.563-3.25,5.655-6.308l5.654-5.6-5.843-5.82L9.424,0.252h3.092c5.552,0,10.734,4.882,11.4,10.74A12.012,12.012,0,0,1,13.194,24.131ZM6.37,9.865C3.2,9.988.433,9.92,0.225,9.715c-0.462-.46,1.734-4.541,3.242-6.025,1.2-1.183,1.508-1.04,4.976,2.345L12.139,9.64Zm5.994,4.656L8.67,18.276c-3.546,3.605-3.751,3.7-5.127,2.458C2.186,19.5,0,15.95,0,14.971c0-.247,2.789-0.45,6.182-0.45h6.183Z"/>
</svg>
