<svg xmlns="http://www.w3.org/2000/svg" width="195" height="45" viewBox="0 0 195 45">
  <defs>
    <style>
      .cls-1 {
        fill: #fff;
        fill-rule: evenodd;
      }
    </style>
  </defs>
  <path id="都市伝説_のコピー" data-name="都市伝説 のコピー" class="cls-1" d="M44.167,34.74V31.868c0-3.665-1.04-8.221-2.377-10.1a8.226,8.226,0,0,1-.99-4.506,17.616,17.616,0,0,1,.842-5.249l0.347-1.04a47.68,47.68,0,0,0,2.179-8.221c0-1.089-2.971-1.931-6.636-1.931H34.163a6.574,6.574,0,0,0-6.636,6.636V38.107c0,3.665.792,6.586,1.882,6.586,0.991,0,1.832-2.922,1.832-6.586V11.217c0-3.665,2.08-6.636,4.655-6.636,1.931,0,3.07,1.535,3.07,3.764a8,8,0,0,1-.446,2.526l-0.446,1.436a18.241,18.241,0,0,0-.792,5.1,8.793,8.793,0,0,0,.99,4.655c1.238,1.882,2.278,6.042,2.278,9.261,0,3.169-1.337,5.794-3.021,5.794-1.634,0-3.021.99-3.021,2.08,0,1.188,2.179,2.179,4.8,2.179S44.167,38.4,44.167,34.74ZM25.794,15.525c0-.99-1.981-1.832-4.407-1.832-1.238,0-1.832-.5-1.832-1.238,0-2.278,5.794-5.7,5.794-8.815A0.673,0.673,0,0,0,24.7,2.848c-1.486,0-3.268,2.872-4.754,2.872a0.381,0.381,0,0,1-.4-0.446c0-.792-1.535-1.535-3.417-1.535-1.931,0-3.467-.842-3.467-1.931a1.858,1.858,0,1,0-3.714,0c0,1.089-1.585,1.931-3.467,1.931s-3.467.842-3.467,1.783C2.024,6.562,3.608,7.4,5.49,7.4a3.321,3.321,0,0,1,3.467,3.12c0,1.733-1.882,3.169-4.259,3.169-2.328,0-4.209.842-4.209,1.832,0,1.04,1.783,1.832,3.912,1.832,1.089,0,1.634.4,1.634,1.089,0,2.278-5.546,5.4-5.546,8.567,0,0.743.248,1.09,0.693,1.09,0.693,0,1.04-.792,1.535-0.792,0.792,0,1.387,2.03,1.387,5.15v5A6.636,6.636,0,0,0,10.739,44.1h6.289a6.594,6.594,0,0,0,6.586-6.636v-8.32a6.594,6.594,0,0,0-6.586-6.636H14.255c-2.773,0-4.407-.644-4.407-1.535,0-2.476,7.924-3.615,9.558-3.615C22.922,17.358,25.794,16.565,25.794,15.525Zm-8.666-7.28a3.278,3.278,0,0,1-1.288,2.08,3.523,3.523,0,0,1-2.228,1.238,0.993,0.993,0,0,1-.941-1.238A3.051,3.051,0,0,1,15.84,7.4C16.732,7.4,17.128,7.7,17.128,8.246Zm2.773,20.5c0,1.634-2.724,2.971-6.042,2.971s-6.091-1.337-6.091-2.971,2.773-2.971,6.091-2.971S19.9,27.114,19.9,28.748Zm0,9.063c0,1.634-2.724,2.971-6.042,2.971S7.768,39.444,7.768,37.81s2.773-2.922,6.091-2.922S19.9,36.176,19.9,37.81Zm74.954-31.3c0-1.089-2.971-1.981-6.636-1.981H81.088c-3.665,0-6.636-1.04-6.636-2.377a2.044,2.044,0,1,0-4.061,0c0,1.337-2.971,2.377-6.636,2.377H56.624c-3.665,0-6.636.891-6.636,1.981,0,1.139,2.971,2.03,6.636,2.03h7.131c3.665,0,6.636,1.684,6.636,3.665,0,2.08-2.971,3.764-6.636,3.764h-4.8a6.594,6.594,0,0,0-6.636,6.586V36.77c0,3.665.941,6.636,2.03,6.636,1.139,0,2.08-2.971,2.08-6.636v-10.1a6.6,6.6,0,0,1,6.636-6.636h0.693a6.636,6.636,0,0,1,6.636,6.636V38.157c0,3.665.891,6.636,2.03,6.636s2.03-2.971,2.03-6.636V26.668a6.636,6.636,0,0,1,6.636-6.636h0.693a6.679,6.679,0,0,1,6.685,6.636v6.19c0,3.665-.545,6.586-1.882,6.586-1.288,0-2.575.792-2.575,1.832,0,1.09,2.08,2.13,4.407,2.13,2.377,0,4.061-2.971,4.061-6.636V22.558a6.594,6.594,0,0,0-6.636-6.586H81.088c-3.665,0-6.636-1.684-6.636-3.764,0-1.981,2.971-3.665,6.636-3.665h7.131C91.884,8.543,94.855,7.651,94.855,6.512Zm48.064-3.764c0-1.089-2.922-1.981-6.636-1.981H120.189c-3.665,0-6.636.891-6.636,1.981,0,1.04,2.971,1.981,6.636,1.981h16.094C140,4.73,142.919,3.789,142.919,2.749Zm1.387,15.6c0-1.089-2.972-1.931-6.636-1.931H118.8c-3.665,0-6.636.842-6.636,1.931,0,1.139,1.585,1.981,3.466,1.981,1.239,0,1.932,1.238,1.932,3.07a10.191,10.191,0,0,1-.545,3.219l-2.476,7.23a41.351,41.351,0,0,0-2.129,8.27c0,1.09,2.971,1.981,6.635,1.981H137.67c3.12,0,5.2-2.08,5.2-4.853a6.023,6.023,0,0,0-.2-1.585l-1.337-5.1c-0.941-3.566-2.525-6.388-3.615-6.388-0.644,0-.941.941-0.941,2.377a16.359,16.359,0,0,0,.545,4.011l0.3,1.139a6.02,6.02,0,0,1,.2,1.585c0,2.773-2.08,4.853-5.2,4.853h-9.161c-2.971,0-4.8-1.832-4.8-4.407a6.469,6.469,0,0,1,.3-1.882l2.477-7.23a9.9,9.9,0,0,1,8.765-6.289h7.478C141.334,20.329,144.306,19.487,144.306,18.348ZM109.393,2.154c0-1.387-.347-2.278-0.991-2.278-1.188,0-2.921,2.872-3.862,6.388L101.024,19.14a15.762,15.762,0,0,0-.644,4.11c0,1.387.346,2.278,0.99,2.278a2.718,2.718,0,0,0,2.575-1.783,0.221,0.221,0,0,1,.149-0.2c0.2,0,.347,1.981.347,5.051v9.558c0,3.665.891,6.636,1.98,6.636,1.139,0,2.031-2.971,2.031-6.636V26.618c0-3.665-.743-6.636-1.733-6.636-0.446,0-.694-0.693-0.694-1.783a18.275,18.275,0,0,1,.743-4.606l1.981-7.329A17.436,17.436,0,0,0,109.393,2.154Zm84.264,40.113c0-1.09-1.832-1.931-4.061-1.931-2.278,0-4.11-2.773-4.11-6.19S187.071,28,189,28c1.882,0,3.467-2.971,3.467-6.636V13.891c0-3.665-.892-6.636-2.031-6.636-0.792,0-1.238-.743-1.238-1.882,0-1.238.644-2.377,0.644-3.615,0-1.139-.4-1.882-1.09-1.882-2.921,0-2.525,7.379-8.072,7.379-5.5,0-5.2-7.379-8.022-7.379-0.743,0-1.09.743-1.09,1.832,0,1.238.595,2.328,0.595,3.566,0,1.139-.5,1.981-1.288,1.981-1.139,0-2.129,2.971-2.129,6.636v7.478c0,3.665,1.139,6.636,2.476,6.636,0.693,0,1.04.743,1.04,1.981a12.57,12.57,0,0,1-.892,4.16l-1.634,4.407a14.637,14.637,0,0,0-1.089,4.605c0,0.941.3,1.535,0.792,1.535,1.04,0,2.922-2.773,4.16-6.19l1.535-4.308c1.238-3.417,3.219-6.19,4.407-6.19,1.238,0,2.179,2.922,2.179,6.636v2.872c0,3.665,2.724,6.636,5.992,6.636S193.657,43.307,193.657,42.267ZM166.717,4.829c0-1.04-1.585-1.832-3.516-1.832-1.882,0-3.466-.693-3.466-1.535a1.852,1.852,0,0,0-3.665,0C156.07,2.3,154.535,3,152.6,3c-1.881,0-3.417.792-3.417,1.832,0,1.089,2.972,1.882,6.636,1.882h4.259C163.795,6.71,166.717,5.918,166.717,4.829Zm-1.386,8.419c0-.941-2.922-1.684-6.587-1.684h-1.585c-3.714,0-6.635.743-6.635,1.684,0,0.991,2.921,1.733,6.635,1.733h1.585C162.409,14.981,165.331,14.238,165.331,13.247Zm0,8.369c0-.941-2.922-1.684-6.587-1.684h-1.585c-3.714,0-6.635.743-6.635,1.684,0,0.842,2.921,1.634,6.635,1.634h1.585C162.409,23.251,165.331,22.458,165.331,21.617Zm0,15.847V34.74a6.563,6.563,0,0,0-6.587-6.636h-1.585a6.573,6.573,0,0,0-6.635,6.636v2.724a6.6,6.6,0,0,0,6.635,6.636h1.585A6.594,6.594,0,0,0,165.331,37.464ZM188.507,17.7a6.6,6.6,0,0,1-6.636,6.586H179.4a6.594,6.594,0,0,1-6.636-6.586v-0.1a6.6,6.6,0,0,1,6.636-6.636h2.476a6.605,6.605,0,0,1,6.636,6.636v0.1ZM161.914,36.077c0,2.575-1.783,4.655-4.012,4.655-2.179,0-3.961-2.08-3.961-4.655s1.782-4.655,3.961-4.655C160.131,31.422,161.914,33.5,161.914,36.077Z"/>
</svg>
