<svg xmlns="http://www.w3.org/2000/svg" width="292" height="46" viewBox="0 0 292 46">
  <defs>
    <style>
      .cls-1 {
        fill: #fff;
        fill-rule: evenodd;
      }
    </style>
  </defs>
  <path id="心霊スポット" class="cls-1" d="M44.91,38.513a18.97,18.97,0,0,0-.149-2.328L42.087,15.931c-0.5-3.615-1.733-6.586-2.823-6.586-0.891,0-1.387,1.733-1.387,4.16a21.234,21.234,0,0,0,.148,2.427L40.5,36.186c0.446,3.615,1.783,6.586,2.922,6.586C44.365,42.772,44.91,40.989,44.91,38.513ZM30.895,24.1a17.176,17.176,0,0,0-.347-3.318L27.725,7.463C26.983,3.9,25.447.975,24.259,0.975c-0.792,0-1.189,1.238-1.189,3.12a17.269,17.269,0,0,0,.347,3.367l2.724,13.321c0.743,3.566,2.278,6.487,3.516,6.487C30.449,27.272,30.895,25.984,30.895,24.1ZM37.58,40.593c0-3.318-1.287-4.952-2.278-4.952s-1.783,1.238-1.783,2.872c0,1.585-2.625,3.021-6.24,3.021H23.962A6.6,6.6,0,0,1,17.326,34.9V11.573c0-3.665-.941-6.586-2.08-6.586s-2.08,2.922-2.08,6.586V38.959A6.636,6.636,0,0,0,19.8,45.595H30.944C34.559,45.595,37.58,43.267,37.58,40.593ZM7.223,14c0-2.674-.594-4.655-1.535-4.655-1.139,0-2.377,2.971-2.724,6.586L0.885,37.77c-0.05.644-.1,1.288-0.1,1.931,0,2.674.594,4.655,1.535,4.655,1.189,0,2.427-2.971,2.773-6.586l2.03-21.839C7.174,15.287,7.223,14.644,7.223,14Zm81,1.189c0-.693-2.427-1.238-5.447-1.238-2.971,0-5.4.545-5.4,1.238,0,0.644,2.427,1.188,5.4,1.188C85.793,16.377,88.219,15.832,88.219,15.188Zm0,5.447c0-.693-2.427-1.238-5.447-1.238-2.971,0-5.4.545-5.4,1.238,0,0.644,2.427,1.189,5.4,1.189C85.793,21.824,88.219,21.28,88.219,20.636ZM94.756,13.8c0-3.268-2.971-5.943-6.636-5.943H81.039c-3.665,0-6.636-.644-6.636-1.535,0-.792,2.971-1.486,6.636-1.486h5.745c3.714,0,6.636-.693,6.636-1.535S90.5,1.768,86.783,1.768H58.011c-3.714,0-6.636.693-6.636,1.535S54.3,4.838,58.011,4.838h5.794c3.665,0,6.636.693,6.636,1.486,0,0.891-2.971,1.535-6.636,1.535H56.624c-3.665,0-6.636,2.674-6.636,5.943s0.842,5.893,1.931,5.893c1.04,0,1.882-1.981,1.882-4.358,0-2.427,2.971-4.407,6.636-4.407h3.367c3.665,0,6.636,2.427,6.636,5.447s0.891,5.447,1.981,5.447S74.4,19.4,74.4,16.377s2.971-5.447,6.636-5.447h3.268c3.665,0,6.636,1.981,6.636,4.407,0,2.377.842,4.358,1.882,4.358C93.914,19.695,94.756,17.07,94.756,13.8ZM67.569,15.188c0-.693-2.427-1.238-5.447-1.238s-5.447.545-5.447,1.238c0,0.644,2.427,1.188,5.447,1.188S67.569,15.832,67.569,15.188ZM90.893,26.281c0-.842-2.971-1.535-6.636-1.535H60.388c-3.665,0-6.636.693-6.636,1.535s2.971,1.486,6.636,1.486H84.258C87.922,27.767,90.893,27.123,90.893,26.281ZM67.569,20.636c0-.693-2.427-1.238-5.447-1.238s-5.447.545-5.447,1.238c0,0.644,2.427,1.189,5.447,1.189S67.569,21.28,67.569,20.636ZM94.806,43.515c0-.842-1.089-1.585-2.476-1.585A1.713,1.713,0,0,1,90.646,40c0-.891.446-1.684,0.446-2.625,0-.891-0.4-1.535-1.09-1.535-2.773,0-2.823,6.091-6.141,6.091-1.238,0-2.278-1.832-2.278-4.011s2.674-4.011,5.943-4.011,5.893-.743,5.893-1.535c0-.891-2.922-1.535-6.636-1.535H58.011c-3.714,0-6.636.644-6.636,1.535,0,0.792,2.625,1.535,5.893,1.535,3.318,0,5.992,1.832,5.992,4.011s-1.04,4.011-2.328,4.011c-3.367,0-3.268-6.091-6.091-6.091-0.743,0-1.139.644-1.139,1.585,0,0.842.4,1.634,0.4,2.526a1.722,1.722,0,0,1-1.634,1.981c-1.288,0-2.427.743-2.427,1.585,0,0.891,2.971,1.585,6.636,1.585h31.5C91.834,45.1,94.806,44.406,94.806,43.515Zm-17.283-5.6c0,2.179-2.278,4.011-5.15,4.011-2.823,0-5.1-1.832-5.1-4.011s2.278-4.011,5.1-4.011C75.245,33.908,77.523,35.74,77.523,37.919Zm66.387,4.507a2.286,2.286,0,0,0-2.426-2.129c-1.337,0-4.309-2.179-6.636-4.853L129.8,29.7a8.176,8.176,0,0,1-.3-9.954l5.447-7.082c2.179-2.823,3.912-6.042,3.912-7.181S135.986,3.4,132.42,3.4H109.393c-3.566,0-6.438.941-6.438,2.08s2.872,2.08,6.438,2.08h17.778c3.566,0,4.7,2.278,2.526,5.1L112.315,35.2c-2.179,2.823-5.5,5.1-7.478,5.1s-3.566.941-3.566,2.13c0,1.139,2.08,2.08,4.606,2.08,2.575,0,6.388-2.278,8.567-5.1l4.655-6.091a4.983,4.983,0,0,1,8.072-.2l5.547,6.487c2.327,2.674,5.744,4.9,7.675,4.9S143.909,43.564,143.909,42.425ZM194.6,5.234a5.522,5.522,0,1,0-5.546,5.5A5.559,5.559,0,0,0,194.6,5.234Zm-1.783,37.191a2,2,0,0,0-1.931-2.08c-1.09,0-2.031-2.922-2.179-6.438l-0.2-5c-0.149-3.516-1.139-6.388-2.278-6.388s-1.981,2.872-1.882,6.388l0.3,9.211c0.1,3.516,2.031,6.438,4.209,6.438S192.815,43.564,192.815,42.425ZM186.13,11.92c0-1.189-2.873-2.129-6.389-2.129s-6.388-1.684-6.388-3.714c0-1.981-.941-4.457-2.129-4.457-1.139,0-2.13,2.476-2.13,4.457,0,2.03-2.872,3.714-6.388,3.714h-5.695c-3.516,0-6.438.941-6.438,2.129s2.922,2.13,6.438,2.13h5.695a6.414,6.414,0,0,1,6.388,6.438V37.968c0,3.566.991,6.438,2.13,6.438,1.188,0,2.129-2.872,2.129-6.438V20.487a6.414,6.414,0,0,1,6.388-6.438C183.257,14.049,186.13,13.108,186.13,11.92ZM158.7,28.906c0.148-3.516-.743-6.388-1.882-6.388s-2.179,2.872-2.278,6.388l-0.149,5c-0.1,3.516-1.089,6.438-2.228,6.438a2.041,2.041,0,0,0-1.981,2.08c0,1.139,1.783,2.129,4.011,2.129,2.179,0,4.011-2.922,4.16-6.438ZM191.874,5.185A2.78,2.78,0,0,1,189.1,8.008a2.8,2.8,0,1,1,0-5.6A2.769,2.769,0,0,1,191.874,5.185Zm28.85,17.481V19c0-3.565-.892-6.438-1.932-6.438s-1.931,2.872-1.931,6.438v3.665c0,3.566.891,6.438,1.931,6.438S220.724,26.232,220.724,22.666Zm15.1,15.3V18.605c0-3.566-.892-6.438-1.981-6.438-1.139,0-2.03,2.872-2.03,6.438v15.4a6.426,6.426,0,0,1-6.438,6.438H212.553c-3.566,0-6.438.891-6.438,1.981s2.872,1.981,6.438,1.981H229.39A6.425,6.425,0,0,0,235.828,37.968Zm-27.435-15.3V19c0-3.565-.892-6.438-1.981-6.438-1.04,0-1.931,2.872-1.931,6.438v3.665c0,3.566.891,6.438,1.931,6.438C207.5,29.1,208.393,26.232,208.393,22.666Zm83.373-.991c0-1.188-2.873-2.129-6.438-2.129H266.609a6.425,6.425,0,0,1-6.438-6.438V8.849c0-3.566-.941-6.438-2.13-6.438-1.139,0-2.08,2.872-2.08,6.438V38.464c0,3.566.941,6.438,2.08,6.438,1.189,0,2.13-2.872,2.13-6.438v-8.27a6.425,6.425,0,0,1,6.438-6.438h18.719C288.893,23.756,291.766,22.815,291.766,21.676Z"/>
</svg>
